<svg id="Layer_1" data-name="Layer 1" xmlns="http://www.w3.org/2000/svg" xmlns:xlink="http://www.w3.org/1999/xlink" viewBox="0 0 155.81 60"><defs><style>.cls-1,.cls-2{fill:none;}.cls-2{clip-rule:evenodd;}.cls-3{clip-path:url(#clip-path);}.cls-4{isolation:isolate;}.cls-5{clip-path:url(#clip-path-2);}.cls-6{clip-path:url(#clip-path-3);}.cls-7{fill:#f78f1e;}.cls-8{clip-path:url(#clip-path-5);}.cls-9{clip-path:url(#clip-path-6);}.cls-10{clip-path:url(#clip-path-7);}.cls-11{fill:#0055a4;}.cls-12{clip-path:url(#clip-path-9);}.cls-13{clip-path:url(#clip-path-11);}.cls-14{clip-path:url(#clip-path-13);}.cls-15{clip-path:url(#clip-path-15);}.cls-16{clip-path:url(#clip-path-17);}.cls-17{clip-path:url(#clip-path-19);}.cls-18{clip-path:url(#clip-path-21);}.cls-19{clip-path:url(#clip-path-23);}.cls-20{clip-path:url(#clip-path-25);}.cls-21{clip-path:url(#clip-path-27);}.cls-22{clip-path:url(#clip-path-29);}.cls-23{clip-path:url(#clip-path-31);}.cls-24{clip-path:url(#clip-path-33);}.cls-25{clip-path:url(#clip-path-35);}.cls-26{clip-path:url(#clip-path-37);}.cls-27{clip-path:url(#clip-path-39);}.cls-28{clip-path:url(#clip-path-41);}.cls-29{clip-path:url(#clip-path-43);}.cls-30{clip-path:url(#clip-path-45);}.cls-31{clip-path:url(#clip-path-47);}.cls-32{clip-path:url(#clip-path-49);}</style><clipPath id="clip-path" transform="translate(4.9 4)"><rect class="cls-1" x="0.48" y="1" width="145.03" height="50"/></clipPath><clipPath id="clip-path-2" transform="translate(4.9 4)"><rect class="cls-1" x="0.1" y="1" width="146" height="50"/></clipPath><clipPath id="clip-path-3" transform="translate(4.9 4)"><path class="cls-2" d="M144.68,27.92H103.45C99.8,9.25,82.8-3.92,66.69,2.76,57.42,6.47,50.93,16.67,54,26.87c2.16,7.42,9.89,12.05,17.31,9.89A8.57,8.57,0,0,0,77.2,29c0-2.16-2.16-5.26-4.64-3.71-0.93.31-1.55,1.24-2.78,1.55a4.65,4.65,0,0,1-4.33-3.09c-0.93-3.71.93-7.11,4.33-9,6.18-3.09,13-.62,17,4.95,7.11,10.2.93,23.49-9.58,28.13-15.7,7-30.66-3.83-35.79-18.48V28.79a0.86,0.86,0,0,0-.83-0.86H1.32a0.84,0.84,0,0,0-.84.86v3.06a0.86,0.86,0,0,0,.84.86H40.57a0.9,0.9,0,0,0,.28-0.06c4.73,7.51,10.26,15,19.66,17.4,10.2,2.78,20.71-.62,26.86-9.58,5.25-7.73,4.64-17.93-2.16-24.42-5.87-5.87-15.76-5.87-21,1.24-4.33,6.49.93,13.29,7.11,15.45-0.93,2.47-4,2.47-6.18,2.16a10.33,10.33,0,0,1-7.73-4.64A16.72,16.72,0,0,1,58,10.8,21.45,21.45,0,0,1,77.17,2.14C91.86,3,99,16.61,102.4,29.34v2.5a0.86,0.86,0,0,0,.87.86h41.39a0.86,0.86,0,0,0,.87-0.86V28.79a0.84,0.84,0,0,0-.83-0.86"/></clipPath><clipPath id="clip-path-5" transform="translate(4.9 4)"><rect class="cls-1" x="0.1" y="1" width="145.81" height="50"/></clipPath><clipPath id="clip-path-6" transform="translate(4.9 4)"><rect class="cls-1" x="0.1" y="12" width="146" height="27"/></clipPath><clipPath id="clip-path-7" transform="translate(4.9 4)"><path class="cls-2" d="M11.07,31.58c0,0.77-.59,1.18-1.76,1.18H1.86c-1.18,0-1.76-.4-1.76-1.18V19.22C0.1,18.44.71,18,1.89,18H9.31c1.18,0,1.76.4,1.76,1.17v3.31H7.73v-2.6H3.4V30.84H7.73V26.73H5.26V24.87h5.81v6.71Z"/></clipPath><clipPath id="clip-path-9" transform="translate(4.9 4)"><polygon class="cls-2" points="23.16 32.75 14.44 32.75 14.44 18.07 17.75 18.07 17.75 30.78 23.16 30.78 23.16 32.75"/></clipPath><clipPath id="clip-path-11" transform="translate(4.9 4)"><path class="cls-2" d="M37,32.75H33.73L33.08,30H28.94l-0.65,2.78H25v0L29.31,18H32.8Zm-4.42-4.67L31,21.44,29.4,28.09h3.21Z"/></clipPath><clipPath id="clip-path-13" transform="translate(4.9 4)"><path class="cls-2" d="M50.26,31.58c0,0.77-.59,1.18-1.76,1.18H41.33c-1.17,0-1.76-.4-1.76-1.18V27.9h3.34v3h4V28l-6.65-4.17a1.34,1.34,0,0,1-.71-1.17V19.22c0-.77.59-1.17,1.76-1.17h7.17c1.17,0,1.76.37,1.76,1.14v3.49H47V19.9H42.91v2.66l6.65,4.14a1.35,1.35,0,0,1,.71,1.21v3.68Z"/></clipPath><clipPath id="clip-path-15" transform="translate(4.9 4)"><path class="cls-2" d="M64.24,31.58c0,0.77-.59,1.18-1.76,1.18H55.3c-1.17,0-1.76-.4-1.76-1.18V27.9h3.31v3h4V28l-6.65-4.17a1.34,1.34,0,0,1-.71-1.17V19.22c0-.77.59-1.17,1.76-1.17h7.17c1.17,0,1.76.37,1.76,1.14v3.49H60.93V19.9h-4v2.66l6.65,4.14a1.35,1.35,0,0,1,.71,1.21v3.68Z"/></clipPath><clipPath id="clip-path-17" transform="translate(4.9 4)"><path class="cls-2" d="M90.63,18.07L87.42,32.79H84.17l-2-8.32c0-.31-0.06-0.74-0.12-1.33a8.7,8.7,0,0,1-.12,1.33l-2,8.32H76.72L73.51,18.07h3.34l1.73,8.72c0,0.31.06,0.74,0.12,1.33,0-.31.06-0.74,0.12-1.33l1.92-8.72h2.72l1.92,8.72c0,0.31.06,0.74,0.12,1.33,0-.31.06-0.74,0.12-1.33l1.7-8.72h3.31Z"/></clipPath><clipPath id="clip-path-19" transform="translate(4.9 4)"><path class="cls-2" d="M104.42,31.58c0,0.77-.59,1.17-1.76,1.17H95c-1.18,0-1.76-.4-1.76-1.17V19.22c0-.77.59-1.17,1.76-1.17h7.66c1.18,0,1.76.4,1.76,1.17V31.58Zm-7.85-.71h4.54V20H96.57V30.87Z"/></clipPath><clipPath id="clip-path-21" transform="translate(4.9 4)"><path class="cls-2" d="M119.17,32.75H115.7l-3.65-6.83V24.59h3.25V20h-4.17v12.8h-3.31V18.07h9c1.17,0,1.76.4,1.76,1.18v5.69a1.05,1.05,0,0,1-1,1,10.47,10.47,0,0,1-2.13.12Z"/></clipPath><clipPath id="clip-path-23" transform="translate(4.9 4)"><polygon class="cls-2" points="133.07 32.75 129.43 32.75 125.22 26.2 125.22 32.75 121.92 32.75 121.92 18.07 125.22 18.07 125.22 24.28 128.9 18.07 132.52 18.07 132.52 18.16 128.01 25.15 133.07 32.75"/></clipPath><clipPath id="clip-path-25" transform="translate(4.9 4)"><path class="cls-2" d="M145.75,31.58c0,0.77-.59,1.18-1.76,1.18h-7.17c-1.18,0-1.76-.4-1.76-1.18V27.9h3.31v3h4.08V28l-6.65-4.17a1.34,1.34,0,0,1-.71-1.17V19.22c0-.77.59-1.17,1.76-1.17H144c1.18,0,1.76.37,1.76,1.14v3.49h-3.31V19.9h-4.05v2.66L145,26.7a1.35,1.35,0,0,1,.71,1.21v3.68Z"/></clipPath><clipPath id="clip-path-27" transform="translate(4.9 4)"><polygon class="cls-2" points="105.47 34.39 105.47 38.5 104.67 38.5 104.67 36.71 102.75 36.71 102.75 38.5 101.95 38.5 101.95 34.39 102.75 34.39 102.75 36.06 104.67 36.06 104.67 34.39 105.47 34.39"/></clipPath><clipPath id="clip-path-29" transform="translate(4.9 4)"><path class="cls-2" d="M108.35,34.33a2,2,0,0,1,1.45.37,2.84,2.84,0,0,1,.31,1.67,3.06,3.06,0,0,1-.34,1.79,2.23,2.23,0,0,1-1.58.37,2,2,0,0,1-1.45-.37,2.61,2.61,0,0,1-.34-1.61,3.31,3.31,0,0,1,.31-1.86,2.54,2.54,0,0,1,1.64-.37m-0.06.68a1.16,1.16,0,0,0-.93.22,3.74,3.74,0,0,0-.12,1.39,2.32,2.32,0,0,0,.15,1.08,1.34,1.34,0,0,0,.93.19,1,1,0,0,0,.86-0.22,2.9,2.9,0,0,0,.16-1.24,3.14,3.14,0,0,0-.12-1.24,1.35,1.35,0,0,0-.93-0.19"/></clipPath><clipPath id="clip-path-31" transform="translate(4.9 4)"><path class="cls-2" d="M116,34.39V38.5h-0.77V35h0l-0.09.28-0.09.28c-0.09.25-.15,0.46-0.19,0.56l-0.9,2.32h-0.71l-0.93-2.32a2.88,2.88,0,0,1-.19-0.56L112,35.29,111.87,35h0v0.62c0,0.25,0,.43,0,0.59v2.26H111.1V34.36h1.27l0.74,1.92a2.85,2.85,0,0,1,.19.56l0.09,0.28,0.09,0.28h0l0.09-.28,0.09-.28a2.85,2.85,0,0,1,.19-0.56l0.71-1.92H116v0Z"/></clipPath><clipPath id="clip-path-33" transform="translate(4.9 4)"><polygon class="cls-2" points="117.84 35.04 117.84 36.09 119.75 36.09 119.75 36.68 117.84 36.68 117.84 37.85 119.88 37.85 119.88 38.5 117.03 38.5 117.03 34.39 119.88 34.39 119.88 35.04 117.84 35.04"/></clipPath><clipPath id="clip-path-35" transform="translate(4.9 4)"><path class="cls-2" d="M125.66,36.53h0.68V37a3.39,3.39,0,0,1-.06.56l0.59,0.5-0.37.46-0.49-.4a1.39,1.39,0,0,1-1.27.43,3,3,0,0,1-1.45-.25,1.32,1.32,0,0,1-.34-1.08,0.91,0.91,0,0,1,.77-1.05,0.94,0.94,0,0,1-.34-0.74,0.9,0.9,0,0,1,.28-0.77,1.67,1.67,0,0,1,1-.22,1.71,1.71,0,0,1,1.05.22,1,1,0,0,1,.28.84v0.22h-0.68V35.6a0.73,0.73,0,0,0-.09-0.46,0.85,0.85,0,0,0-.5-0.09,0.48,0.48,0,0,0-.59.43,0.74,0.74,0,0,0,.31.56l1.24,1.08a1,1,0,0,0,0-.28A0.62,0.62,0,0,1,125.66,36.53Zm-1.55,0a0.57,0.57,0,0,0-.46.68,0.93,0.93,0,0,0,.16.62,1.19,1.19,0,0,0,.71.12,2.86,2.86,0,0,0,.62,0,1,1,0,0,0,.31-0.25Z"/></clipPath><clipPath id="clip-path-37" transform="translate(4.9 4)"><path class="cls-2" d="M132.18,37.7h-1.79l-0.25.8H129.3l1.36-4.11h1.18l1.39,4.11h-0.8ZM132,37.14L131.31,35l-0.71,2.13H132Z"/></clipPath><clipPath id="clip-path-39" transform="translate(4.9 4)"><path class="cls-2" d="M136.75,34.39h0.77v2.75a1.48,1.48,0,0,1-.34,1.14,2.28,2.28,0,0,1-1.36.28,2.52,2.52,0,0,1-1.42-.28,1.44,1.44,0,0,1-.34-1.11V34.39h0.77v2.78a0.83,0.83,0,0,0,.15.59,1.44,1.44,0,0,0,.77.12,1.37,1.37,0,0,0,.77-0.12,0.88,0.88,0,0,0,.15-0.62V34.39h0.06Z"/></clipPath><clipPath id="clip-path-41" transform="translate(4.9 4)"><polygon class="cls-2" points="140.34 35.07 140.34 38.5 139.57 38.5 139.57 35.07 138.36 35.07 138.36 34.39 141.57 34.39 141.57 35.07 140.34 35.07"/></clipPath><clipPath id="clip-path-43" transform="translate(4.9 4)"><path class="cls-2" d="M144.14,34.33a2,2,0,0,1,1.45.37,2.84,2.84,0,0,1,.31,1.67,3.06,3.06,0,0,1-.34,1.79,2.23,2.23,0,0,1-1.58.37,2,2,0,0,1-1.45-.37,2.61,2.61,0,0,1-.34-1.61,3.31,3.31,0,0,1,.31-1.86,2.54,2.54,0,0,1,1.64-.37m-0.06.68a1.16,1.16,0,0,0-.93.22,3.74,3.74,0,0,0-.12,1.39,2.32,2.32,0,0,0,.15,1.08,1.34,1.34,0,0,0,.93.19,1,1,0,0,0,.87-0.22,2.9,2.9,0,0,0,.15-1.24A3.14,3.14,0,0,0,145,35.2a1.41,1.41,0,0,0-.93-0.19"/></clipPath><clipPath id="clip-path-45" transform="translate(4.9 4)"><path class="cls-2" d="M1,16.62V12.2H3.19a1.67,1.67,0,0,1,1.3.4A2.11,2.11,0,0,1,4.86,14a4.28,4.28,0,0,1-.31,2.1,1.49,1.49,0,0,1-1.33.46H1v0Zm0.83-.71H3a0.86,0.86,0,0,0,.77-0.28A2.51,2.51,0,0,0,4,14.42a3.23,3.23,0,0,0-.15-1.24,0.76,0.76,0,0,0-.74-0.28H1.86v3Z"/></clipPath><clipPath id="clip-path-47" transform="translate(4.9 4)"><path class="cls-2" d="M10,14.49h0.71V15a2.09,2.09,0,0,1-.09.59l0.62,0.53-0.4.49-0.53-.43A1.52,1.52,0,0,1,9,16.65a2.88,2.88,0,0,1-1.54-.28,1.36,1.36,0,0,1-.37-1.14,1,1,0,0,1,.83-1.11,1,1,0,0,1-.37-0.8,1,1,0,0,1,.31-0.83,1.82,1.82,0,0,1,1.08-.22,1.83,1.83,0,0,1,1.11.25,1.15,1.15,0,0,1,.31.9v0.22H9.59V13.5A0.79,0.79,0,0,0,9.49,13,0.92,0.92,0,0,0,9,12.91c-0.4,0-.62.15-0.62,0.46a0.75,0.75,0,0,0,.31.59L10,15.1a1.15,1.15,0,0,0,0-.31A1,1,0,0,0,10,14.49Zm-1.67,0a0.63,0.63,0,0,0-.49.74,1,1,0,0,0,.15.65,1.44,1.44,0,0,0,.77.12A2.92,2.92,0,0,0,9.46,16a0.84,0.84,0,0,0,.34-0.28Z"/></clipPath><clipPath id="clip-path-49" transform="translate(4.9 4)"><path class="cls-2" d="M13.36,16.62V12.2h2.16a1.66,1.66,0,0,1,1.11.28,1.3,1.3,0,0,1,.31,1,2.19,2.19,0,0,1-.15.93,0.91,0.91,0,0,1-.62.34v0a0.74,0.74,0,0,1,.74.87v1H16.08v-0.8a0.59,0.59,0,0,0-.68-0.68H14.19v1.48H13.36Zm0.84-2.19H15.4A0.79,0.79,0,0,0,16,14.27a0.93,0.93,0,0,0,.15-0.62A1,1,0,0,0,16,13a0.72,0.72,0,0,0-.53-0.12H14.19v1.51Z"/></clipPath></defs><title>Untitled-1</title><g class="cls-3"><g class="cls-4"><g class="cls-5"><g class="cls-6"><g class="cls-5"><rect class="cls-7" x="0.39" width="155.03" height="60"/></g></g></g></g></g><g class="cls-8"><g class="cls-4"><g class="cls-9"><g class="cls-10"><g class="cls-5"><rect class="cls-11" y="17.04" width="20.97" height="24.71"/></g></g><g class="cls-12"><g class="cls-5"><rect class="cls-11" x="14.34" y="17.07" width="18.72" height="24.68"/></g></g><g class="cls-13"><g class="cls-5"><rect class="cls-11" x="24.91" y="17.04" width="22.02" height="24.71"/></g></g><g class="cls-14"><g class="cls-5"><rect class="cls-11" x="39.47" y="17.04" width="20.73" height="24.71"/></g></g><g class="cls-15"><g class="cls-5"><rect class="cls-11" x="53.44" y="17.04" width="20.69" height="24.71"/></g></g><g class="cls-16"><g class="cls-5"><rect class="cls-11" x="73.41" y="17.07" width="27.13" height="24.71"/></g></g><g class="cls-17"><g class="cls-5"><rect class="cls-11" x="93.13" y="17.04" width="21.19" height="24.71"/></g></g><g class="cls-18"><g class="cls-5"><rect class="cls-11" x="107.72" y="17.07" width="21.34" height="24.68"/></g></g><g class="cls-19"><g class="cls-5"><rect class="cls-11" x="121.82" y="17.07" width="21.16" height="24.68"/></g></g><g class="cls-20"><g class="cls-5"><rect class="cls-11" x="134.96" y="17.04" width="20.69" height="24.71"/></g></g><g class="cls-21"><g class="cls-5"><rect class="cls-11" x="101.85" y="33.39" width="13.52" height="14.11"/></g></g><g class="cls-22"><g class="cls-5"><rect class="cls-11" x="106.3" y="33.33" width="13.71" height="14.2"/></g></g><g class="cls-23"><g class="cls-5"><rect class="cls-11" x="111" y="33.36" width="14.85" height="14.14"/></g></g><g class="cls-24"><g class="cls-5"><rect class="cls-11" x="116.94" y="33.39" width="12.84" height="14.11"/></g></g><g class="cls-25"><g class="cls-5"><rect class="cls-11" x="122.84" y="33.45" width="13.93" height="14.11"/></g></g><g class="cls-26"><g class="cls-5"><rect class="cls-11" x="129.21" y="33.39" width="13.93" height="14.11"/></g></g><g class="cls-27"><g class="cls-5"><rect class="cls-11" x="133.97" y="33.39" width="13.46" height="14.17"/></g></g><g class="cls-28"><g class="cls-5"><rect class="cls-11" x="138.26" y="33.39" width="13.21" height="14.11"/></g></g><g class="cls-29"><g class="cls-5"><rect class="cls-11" x="142.1" y="33.33" width="13.71" height="14.2"/></g></g><g class="cls-30"><g class="cls-5"><rect class="cls-11" x="0.93" y="11.2" width="13.83" height="14.42"/></g></g><g class="cls-31"><g class="cls-5"><rect class="cls-11" x="6.95" y="11.26" width="14.2" height="14.39"/></g></g><g class="cls-32"><g class="cls-5"><rect class="cls-11" x="13.26" y="11.2" width="13.59" height="14.42"/></g></g></g></g></g></svg>